<mxfile host="app.diagrams.net" modified="2022-06-06T11:12:53.817Z" agent="5.0 (Macintosh; Intel Mac OS X 10_15_7) AppleWebKit/537.36 (KHTML, like Gecko) Chrome/102.0.5005.61 Safari/537.36" etag="fDVvmOoOMRZvPFBCP8Bz" version="18.2.0" type="github">
  <diagram id="7as-Vb51-ltIc20VUpxE" name="Page-1">
    <mxGraphModel dx="1186" dy="738" grid="1" gridSize="10" guides="1" tooltips="1" connect="1" arrows="1" fold="1" page="1" pageScale="1" pageWidth="827" pageHeight="1169" math="0" shadow="0">
      <root>
        <mxCell id="0" />
        <mxCell id="1" parent="0" />
        <mxCell id="bJXHiUYmD_q4S1b0u6GX-5" value="" style="edgeStyle=orthogonalEdgeStyle;curved=1;rounded=0;orthogonalLoop=1;jettySize=auto;html=1;fontSize=12;fontColor=#000000;" edge="1" parent="1" source="bJXHiUYmD_q4S1b0u6GX-1" target="bJXHiUYmD_q4S1b0u6GX-4">
          <mxGeometry relative="1" as="geometry" />
        </mxCell>
        <mxCell id="bJXHiUYmD_q4S1b0u6GX-1" value="类加载检查" style="rounded=0;whiteSpace=wrap;html=1;shadow=0;labelBackgroundColor=none;fontSize=12;fillColor=#dae8fc;strokeColor=#6c8ebf;" vertex="1" parent="1">
          <mxGeometry x="120" y="210" width="120" height="60" as="geometry" />
        </mxCell>
        <mxCell id="bJXHiUYmD_q4S1b0u6GX-7" value="否" style="edgeStyle=orthogonalEdgeStyle;curved=1;rounded=0;orthogonalLoop=1;jettySize=auto;html=1;fontSize=12;fontColor=#000000;" edge="1" parent="1" source="bJXHiUYmD_q4S1b0u6GX-4" target="bJXHiUYmD_q4S1b0u6GX-6">
          <mxGeometry relative="1" as="geometry" />
        </mxCell>
        <mxCell id="bJXHiUYmD_q4S1b0u6GX-9" value="是" style="edgeStyle=orthogonalEdgeStyle;curved=1;rounded=0;orthogonalLoop=1;jettySize=auto;html=1;fontSize=12;fontColor=#000000;" edge="1" parent="1" source="bJXHiUYmD_q4S1b0u6GX-4" target="bJXHiUYmD_q4S1b0u6GX-8">
          <mxGeometry relative="1" as="geometry" />
        </mxCell>
        <mxCell id="bJXHiUYmD_q4S1b0u6GX-4" value="是否已加载" style="rhombus;whiteSpace=wrap;html=1;rounded=0;shadow=0;labelBackgroundColor=none;fillColor=#fff2cc;strokeColor=#d6b656;" vertex="1" parent="1">
          <mxGeometry x="280" y="200" width="120" height="80" as="geometry" />
        </mxCell>
        <mxCell id="bJXHiUYmD_q4S1b0u6GX-10" style="edgeStyle=orthogonalEdgeStyle;curved=1;rounded=0;orthogonalLoop=1;jettySize=auto;html=1;exitX=1;exitY=0.5;exitDx=0;exitDy=0;entryX=0.5;entryY=0;entryDx=0;entryDy=0;fontSize=12;fontColor=#000000;" edge="1" parent="1" source="bJXHiUYmD_q4S1b0u6GX-6" target="bJXHiUYmD_q4S1b0u6GX-8">
          <mxGeometry relative="1" as="geometry" />
        </mxCell>
        <mxCell id="bJXHiUYmD_q4S1b0u6GX-6" value="加载类" style="whiteSpace=wrap;html=1;rounded=0;shadow=0;labelBackgroundColor=none;fillColor=#f8cecc;strokeColor=#b85450;" vertex="1" parent="1">
          <mxGeometry x="280" y="90" width="120" height="60" as="geometry" />
        </mxCell>
        <mxCell id="bJXHiUYmD_q4S1b0u6GX-12" value="" style="edgeStyle=orthogonalEdgeStyle;curved=1;rounded=0;orthogonalLoop=1;jettySize=auto;html=1;fontSize=12;fontColor=#000000;" edge="1" parent="1" source="bJXHiUYmD_q4S1b0u6GX-8" target="bJXHiUYmD_q4S1b0u6GX-11">
          <mxGeometry relative="1" as="geometry" />
        </mxCell>
        <mxCell id="bJXHiUYmD_q4S1b0u6GX-8" value="分配内存" style="whiteSpace=wrap;html=1;rounded=0;shadow=0;labelBackgroundColor=none;fillColor=#dae8fc;strokeColor=#6c8ebf;" vertex="1" parent="1">
          <mxGeometry x="460" y="210" width="120" height="60" as="geometry" />
        </mxCell>
        <mxCell id="bJXHiUYmD_q4S1b0u6GX-14" value="" style="edgeStyle=orthogonalEdgeStyle;curved=1;rounded=0;orthogonalLoop=1;jettySize=auto;html=1;fontSize=12;fontColor=#000000;" edge="1" parent="1" source="bJXHiUYmD_q4S1b0u6GX-11" target="bJXHiUYmD_q4S1b0u6GX-13">
          <mxGeometry relative="1" as="geometry" />
        </mxCell>
        <mxCell id="bJXHiUYmD_q4S1b0u6GX-11" value="初始化零值" style="whiteSpace=wrap;html=1;rounded=0;shadow=0;labelBackgroundColor=none;fillColor=#dae8fc;strokeColor=#6c8ebf;" vertex="1" parent="1">
          <mxGeometry x="620" y="210" width="120" height="60" as="geometry" />
        </mxCell>
        <mxCell id="bJXHiUYmD_q4S1b0u6GX-16" value="" style="edgeStyle=orthogonalEdgeStyle;curved=1;rounded=0;orthogonalLoop=1;jettySize=auto;html=1;fontSize=12;fontColor=#000000;" edge="1" parent="1" source="bJXHiUYmD_q4S1b0u6GX-13" target="bJXHiUYmD_q4S1b0u6GX-15">
          <mxGeometry relative="1" as="geometry" />
        </mxCell>
        <mxCell id="bJXHiUYmD_q4S1b0u6GX-13" value="设置对象头" style="whiteSpace=wrap;html=1;rounded=0;shadow=0;labelBackgroundColor=none;fillColor=#dae8fc;strokeColor=#6c8ebf;" vertex="1" parent="1">
          <mxGeometry x="780" y="210" width="120" height="60" as="geometry" />
        </mxCell>
        <mxCell id="bJXHiUYmD_q4S1b0u6GX-15" value="执行 init 方法" style="whiteSpace=wrap;html=1;rounded=0;shadow=0;labelBackgroundColor=none;fillColor=#dae8fc;strokeColor=#6c8ebf;" vertex="1" parent="1">
          <mxGeometry x="940" y="210" width="120" height="60" as="geometry" />
        </mxCell>
        <mxCell id="bJXHiUYmD_q4S1b0u6GX-30" value="锁状态" style="rounded=0;whiteSpace=wrap;html=1;shadow=0;labelBackgroundColor=none;fontSize=12;fillColor=#d5e8d4;strokeColor=#82b366;" vertex="1" parent="1">
          <mxGeometry x="150" y="410" width="140" height="80" as="geometry" />
        </mxCell>
        <mxCell id="bJXHiUYmD_q4S1b0u6GX-31" value="56 bit" style="rounded=0;whiteSpace=wrap;html=1;shadow=0;labelBackgroundColor=none;fontSize=12;fillColor=#d5e8d4;strokeColor=#82b366;" vertex="1" parent="1">
          <mxGeometry x="290" y="410" width="300" height="40" as="geometry" />
        </mxCell>
        <mxCell id="bJXHiUYmD_q4S1b0u6GX-32" value="25 bit" style="rounded=0;whiteSpace=wrap;html=1;shadow=0;labelBackgroundColor=none;fontSize=12;fillColor=#d5e8d4;strokeColor=#82b366;" vertex="1" parent="1">
          <mxGeometry x="290" y="450" width="140" height="40" as="geometry" />
        </mxCell>
        <mxCell id="bJXHiUYmD_q4S1b0u6GX-33" value="无锁" style="rounded=0;whiteSpace=wrap;html=1;shadow=0;labelBackgroundColor=none;fontSize=12;fillColor=#dae8fc;strokeColor=#6c8ebf;" vertex="1" parent="1">
          <mxGeometry x="150" y="490" width="140" height="40" as="geometry" />
        </mxCell>
        <mxCell id="bJXHiUYmD_q4S1b0u6GX-34" value="unused" style="rounded=0;whiteSpace=wrap;html=1;shadow=0;labelBackgroundColor=none;fontSize=12;fillColor=#dae8fc;strokeColor=#6c8ebf;" vertex="1" parent="1">
          <mxGeometry x="290" y="490" width="140" height="40" as="geometry" />
        </mxCell>
        <mxCell id="bJXHiUYmD_q4S1b0u6GX-35" value="对象的 hashcode" style="rounded=0;whiteSpace=wrap;html=1;shadow=0;labelBackgroundColor=none;fontSize=12;fillColor=#dae8fc;strokeColor=#6c8ebf;" vertex="1" parent="1">
          <mxGeometry x="430" y="490" width="160" height="40" as="geometry" />
        </mxCell>
        <mxCell id="bJXHiUYmD_q4S1b0u6GX-36" value="偏向锁" style="rounded=0;whiteSpace=wrap;html=1;shadow=0;labelBackgroundColor=none;fontSize=12;fillColor=#fff2cc;strokeColor=#d6b656;" vertex="1" parent="1">
          <mxGeometry x="150" y="530" width="140" height="40" as="geometry" />
        </mxCell>
        <mxCell id="bJXHiUYmD_q4S1b0u6GX-37" value="thread-id：偏向锁线程 ID（54 bit）" style="rounded=0;whiteSpace=wrap;html=1;shadow=0;labelBackgroundColor=none;fontSize=12;fillColor=#fff2cc;strokeColor=#d6b656;" vertex="1" parent="1">
          <mxGeometry x="290" y="530" width="210" height="40" as="geometry" />
        </mxCell>
        <mxCell id="bJXHiUYmD_q4S1b0u6GX-38" value="Epoch（2 bit）" style="rounded=0;whiteSpace=wrap;html=1;shadow=0;labelBackgroundColor=none;fontSize=12;fillColor=#fff2cc;strokeColor=#d6b656;" vertex="1" parent="1">
          <mxGeometry x="500" y="530" width="90" height="40" as="geometry" />
        </mxCell>
        <mxCell id="bJXHiUYmD_q4S1b0u6GX-39" value="31 bit" style="rounded=0;whiteSpace=wrap;html=1;shadow=0;labelBackgroundColor=none;fontSize=12;fillColor=#d5e8d4;strokeColor=#82b366;" vertex="1" parent="1">
          <mxGeometry x="430" y="450" width="160" height="40" as="geometry" />
        </mxCell>
        <mxCell id="bJXHiUYmD_q4S1b0u6GX-40" value="1 bit" style="rounded=0;whiteSpace=wrap;html=1;shadow=0;labelBackgroundColor=none;fontSize=12;fillColor=#d5e8d4;strokeColor=#82b366;" vertex="1" parent="1">
          <mxGeometry x="590" y="410" width="100" height="80" as="geometry" />
        </mxCell>
        <mxCell id="bJXHiUYmD_q4S1b0u6GX-41" value="Cms_free" style="rounded=0;whiteSpace=wrap;html=1;shadow=0;labelBackgroundColor=none;fontSize=12;fillColor=#dae8fc;strokeColor=#6c8ebf;" vertex="1" parent="1">
          <mxGeometry x="590" y="490" width="100" height="40" as="geometry" />
        </mxCell>
        <mxCell id="bJXHiUYmD_q4S1b0u6GX-42" value="Cms_free" style="rounded=0;whiteSpace=wrap;html=1;shadow=0;labelBackgroundColor=none;fontSize=12;fillColor=#fff2cc;strokeColor=#d6b656;" vertex="1" parent="1">
          <mxGeometry x="590" y="530" width="100" height="40" as="geometry" />
        </mxCell>
        <mxCell id="bJXHiUYmD_q4S1b0u6GX-43" value="4 bit" style="rounded=0;whiteSpace=wrap;html=1;shadow=0;labelBackgroundColor=none;fontSize=12;fillColor=#d5e8d4;strokeColor=#82b366;" vertex="1" parent="1">
          <mxGeometry x="690" y="410" width="100" height="80" as="geometry" />
        </mxCell>
        <mxCell id="bJXHiUYmD_q4S1b0u6GX-44" value="对象分代年龄" style="rounded=0;whiteSpace=wrap;html=1;shadow=0;labelBackgroundColor=none;fontSize=12;fillColor=#dae8fc;strokeColor=#6c8ebf;" vertex="1" parent="1">
          <mxGeometry x="690" y="490" width="100" height="40" as="geometry" />
        </mxCell>
        <mxCell id="bJXHiUYmD_q4S1b0u6GX-45" value="对象分代年龄" style="rounded=0;whiteSpace=wrap;html=1;shadow=0;labelBackgroundColor=none;fontSize=12;fillColor=#fff2cc;strokeColor=#d6b656;" vertex="1" parent="1">
          <mxGeometry x="690" y="530" width="100" height="40" as="geometry" />
        </mxCell>
        <mxCell id="bJXHiUYmD_q4S1b0u6GX-46" value="1 bit&lt;br&gt;是否偏向锁" style="rounded=0;whiteSpace=wrap;html=1;shadow=0;labelBackgroundColor=none;fontSize=12;fillColor=#d5e8d4;strokeColor=#82b366;" vertex="1" parent="1">
          <mxGeometry x="790" y="410" width="100" height="80" as="geometry" />
        </mxCell>
        <mxCell id="bJXHiUYmD_q4S1b0u6GX-47" value="2 bit&lt;br&gt;锁标识位" style="rounded=0;whiteSpace=wrap;html=1;shadow=0;labelBackgroundColor=none;fontSize=12;fillColor=#d5e8d4;strokeColor=#82b366;" vertex="1" parent="1">
          <mxGeometry x="890" y="410" width="100" height="80" as="geometry" />
        </mxCell>
        <mxCell id="bJXHiUYmD_q4S1b0u6GX-48" value="0" style="rounded=0;whiteSpace=wrap;html=1;shadow=0;labelBackgroundColor=none;fontSize=12;fillColor=#dae8fc;strokeColor=#6c8ebf;" vertex="1" parent="1">
          <mxGeometry x="790" y="490" width="100" height="40" as="geometry" />
        </mxCell>
        <mxCell id="bJXHiUYmD_q4S1b0u6GX-49" value="1" style="rounded=0;whiteSpace=wrap;html=1;shadow=0;labelBackgroundColor=none;fontSize=12;fillColor=#fff2cc;strokeColor=#d6b656;" vertex="1" parent="1">
          <mxGeometry x="790" y="530" width="100" height="40" as="geometry" />
        </mxCell>
        <mxCell id="bJXHiUYmD_q4S1b0u6GX-50" value="01" style="rounded=0;whiteSpace=wrap;html=1;shadow=0;labelBackgroundColor=none;fontSize=12;fillColor=#fff2cc;strokeColor=#d6b656;" vertex="1" parent="1">
          <mxGeometry x="890" y="530" width="100" height="40" as="geometry" />
        </mxCell>
        <mxCell id="bJXHiUYmD_q4S1b0u6GX-51" value="01" style="rounded=0;whiteSpace=wrap;html=1;shadow=0;labelBackgroundColor=none;fontSize=12;fillColor=#dae8fc;strokeColor=#6c8ebf;" vertex="1" parent="1">
          <mxGeometry x="890" y="490" width="100" height="40" as="geometry" />
        </mxCell>
        <mxCell id="bJXHiUYmD_q4S1b0u6GX-52" value="轻量级锁" style="rounded=0;whiteSpace=wrap;html=1;shadow=0;labelBackgroundColor=none;fontSize=12;fillColor=#ffe6cc;strokeColor=#d79b00;" vertex="1" parent="1">
          <mxGeometry x="150" y="570" width="140" height="40" as="geometry" />
        </mxCell>
        <mxCell id="bJXHiUYmD_q4S1b0u6GX-53" value="指向栈中锁的记录的指针" style="rounded=0;whiteSpace=wrap;html=1;shadow=0;labelBackgroundColor=none;fontSize=12;fillColor=#ffe6cc;strokeColor=#d79b00;" vertex="1" parent="1">
          <mxGeometry x="290" y="570" width="600" height="40" as="geometry" />
        </mxCell>
        <mxCell id="bJXHiUYmD_q4S1b0u6GX-54" value="00" style="rounded=0;whiteSpace=wrap;html=1;shadow=0;labelBackgroundColor=none;fontSize=12;fillColor=#ffe6cc;strokeColor=#d79b00;" vertex="1" parent="1">
          <mxGeometry x="890" y="570" width="100" height="40" as="geometry" />
        </mxCell>
        <mxCell id="bJXHiUYmD_q4S1b0u6GX-55" value="重量级锁" style="rounded=0;whiteSpace=wrap;html=1;shadow=0;labelBackgroundColor=none;fontSize=12;fillColor=#f8cecc;strokeColor=#b85450;" vertex="1" parent="1">
          <mxGeometry x="150" y="610" width="140" height="40" as="geometry" />
        </mxCell>
        <mxCell id="bJXHiUYmD_q4S1b0u6GX-56" value="指向重量级锁的记录的指针" style="rounded=0;whiteSpace=wrap;html=1;shadow=0;labelBackgroundColor=none;fontSize=12;fillColor=#f8cecc;strokeColor=#b85450;" vertex="1" parent="1">
          <mxGeometry x="290" y="610" width="600" height="40" as="geometry" />
        </mxCell>
        <mxCell id="bJXHiUYmD_q4S1b0u6GX-57" value="10" style="rounded=0;whiteSpace=wrap;html=1;shadow=0;labelBackgroundColor=none;fontSize=12;fillColor=#f8cecc;strokeColor=#b85450;" vertex="1" parent="1">
          <mxGeometry x="890" y="610" width="100" height="40" as="geometry" />
        </mxCell>
        <mxCell id="bJXHiUYmD_q4S1b0u6GX-60" value="GC 标志" style="rounded=0;whiteSpace=wrap;html=1;shadow=0;labelBackgroundColor=none;fontSize=12;fillColor=#e1d5e7;strokeColor=#9673a6;" vertex="1" parent="1">
          <mxGeometry x="150" y="650" width="140" height="40" as="geometry" />
        </mxCell>
        <mxCell id="bJXHiUYmD_q4S1b0u6GX-61" value="空" style="rounded=0;whiteSpace=wrap;html=1;shadow=0;labelBackgroundColor=none;fontSize=12;fillColor=#e1d5e7;strokeColor=#9673a6;" vertex="1" parent="1">
          <mxGeometry x="290" y="650" width="600" height="40" as="geometry" />
        </mxCell>
        <mxCell id="bJXHiUYmD_q4S1b0u6GX-62" value="11" style="rounded=0;whiteSpace=wrap;html=1;shadow=0;labelBackgroundColor=none;fontSize=12;fillColor=#e1d5e7;strokeColor=#9673a6;" vertex="1" parent="1">
          <mxGeometry x="890" y="650" width="100" height="40" as="geometry" />
        </mxCell>
        <mxCell id="bJXHiUYmD_q4S1b0u6GX-63" value="64 位虚拟机" style="text;html=1;strokeColor=none;fillColor=none;align=center;verticalAlign=middle;whiteSpace=wrap;rounded=0;shadow=0;labelBackgroundColor=none;fontSize=18;fontColor=#000000;fontStyle=1" vertex="1" parent="1">
          <mxGeometry x="490" y="370" width="150" height="30" as="geometry" />
        </mxCell>
      </root>
    </mxGraphModel>
  </diagram>
</mxfile>
